<svg xmlns="http://www.w3.org/2000/svg" width="29.012" height="21.542" viewBox="0 0 29.012 21.542"><defs><style>.a{fill:#80c7b7;}</style></defs><path class="a" d="M5.788,21.542H2.52a1.085,1.085,0,0,1-1.09-1.077V11.848a1.023,1.023,0,0,1,.034-.3l.681-2.289L0,8.549.681,6.53l2.111.707,1.5-4.947A3.279,3.279,0,0,1,7.423,0H21.588a3.278,3.278,0,0,1,3.133,2.289l1.5,4.947,2.111-.707.681,2.02-2.146.707.681,2.289a1.036,1.036,0,0,1,.033.3v7.538a1.05,1.05,0,0,1,0,.168v.909a1.085,1.085,0,0,1-1.089,1.077H23.224l-.375-1.077H6.163l-.374,1.077h0ZM3.61,12.049v6.26H25.4v-6.26l-.715-2.356H4.325ZM6.368,2.929l-1.4,4.611H24.041l-1.4-4.611a1.108,1.108,0,0,0-1.055-.775H7.423A1.092,1.092,0,0,0,6.368,2.929Zm11.509,14.3L17.4,16.155H11.612l-.477,1.077H8.785L10.148,14h8.717l1.362,3.231Zm3.167-4.846A1.635,1.635,0,1,1,22.678,14,1.625,1.625,0,0,1,21.044,12.386Zm-16.345,0A1.635,1.635,0,1,1,6.333,14,1.626,1.626,0,0,1,4.7,12.386Z"/></svg>