<svg xmlns="http://www.w3.org/2000/svg" width="18.29" height="18.263" viewBox="0 0 18.29 18.263"><defs><style>.a{fill:#fff;}</style></defs><path class="a" d="M0,9.131A9.149,9.149,0,0,1,9.145,0c.128,0,.256.008.379.015l.145.008a6.024,6.024,0,0,0-1.929,3.4,11.524,11.524,0,0,0-.357,1.141h.239a7.615,7.615,0,0,0,.167,1.522H7.073A20.019,20.019,0,0,0,6.882,8.37H8.55a14.27,14.27,0,0,0,.809,1.523H6.882a20.028,20.028,0,0,0,.191,2.282H11c.453.543.94,1.078,1.453,1.593a10.806,10.806,0,0,1-.881,2.569,7.584,7.584,0,0,0,3.62-2.615,18.978,18.978,0,0,0,3.073-4.067A9.141,9.141,0,0,1,0,9.131Zm9.145,7.609c.593,0,1.3-1.223,1.762-3.044H7.383C7.835,15.49,8.559,16.741,9.145,16.741Zm-2.429-.4a10.946,10.946,0,0,1-.9-2.64H3.072A7.557,7.557,0,0,0,6.716,16.337ZM2.167,12.175H5.549a21.816,21.816,0,0,1-.19-2.282H1.571A7.526,7.526,0,0,0,2.167,12.175Zm-.6-3.805H5.359a21.8,21.8,0,0,1,.19-2.282H2.167A7.533,7.533,0,0,0,1.571,8.37Zm1.5-3.8h2.74a11.081,11.081,0,0,1,.9-2.64A7.569,7.569,0,0,0,3.072,4.566Zm10.645,8.941-.618-.9c-.01-.014-1-1.419-1.953-3.068A26.71,26.71,0,0,1,9.812,6.944a6.036,6.036,0,0,1-.667-2.378,4.572,4.572,0,0,1,9.145,0,6.021,6.021,0,0,1-.667,2.378,26.51,26.51,0,0,1-1.334,2.592c-.962,1.657-1.942,3.055-1.952,3.068l-.618.9h0ZM11.56,2.411a3.022,3.022,0,0,0-.89,2.155,5.68,5.68,0,0,0,.524,1.76,25.655,25.655,0,0,0,1.286,2.45c.541.931.815,1.341,1.105,1.775l.014.02.12.179.129-.193c.292-.436.566-.846,1.11-1.781a25.852,25.852,0,0,0,1.285-2.45,5.65,5.65,0,0,0,.525-1.76A3.053,3.053,0,0,0,11.56,2.411Zm1.014,2.155a1.143,1.143,0,1,1,1.144,1.141A1.143,1.143,0,0,1,12.574,4.566Z"/></svg>