<svg xmlns="http://www.w3.org/2000/svg" width="15.28" height="8.008" viewBox="0 0 15.28 8.008"><defs><style>.a{fill:#80c7b7;}</style></defs><path class="a" d="M7.079,7.977C3.25,7.673.324,4.366.3,4.333L0,4l.3-.329A12.88,12.88,0,0,1,2.411,1.838,9.426,9.426,0,0,1,7.64,0a9.149,9.149,0,0,1,5.229,1.838,12.761,12.761,0,0,1,2.115,1.838l.3.329-.3.328c-.029.033-2.955,3.341-6.784,3.644a5,5,0,0,1-1.121,0ZM4.622,1.721h.015a3.518,3.518,0,0,0,2.615,5.27c.125.008.255.016.389.016.089,0,.179-.005.266-.011L8,6.991h.031a3.492,3.492,0,0,0,3.1-3.487,3.443,3.443,0,0,0-.5-1.8A7.187,7.187,0,0,0,7.64,1,7.18,7.18,0,0,0,4.622,1.721Zm7.5,1.783A4.494,4.494,0,0,1,11.436,5.9,11.491,11.491,0,0,0,13.848,4,11.893,11.893,0,0,0,12,2.471,4.494,4.494,0,0,1,12.121,3.5ZM1.431,4A11.53,11.53,0,0,0,3.843,5.9a4.476,4.476,0,0,1-.56-3.425A12.012,12.012,0,0,0,1.431,4Zm4.715-.5A1.494,1.494,0,1,1,7.64,5,1.5,1.5,0,0,1,6.146,3.5Z"/></svg>