<svg xmlns="http://www.w3.org/2000/svg" width="25.038" height="26.183" viewBox="0 0 25.038 26.183"><defs><style>.a,.b{fill:#80c7b7;}.b{stroke:rgba(0,0,0,0);stroke-miterlimit:10;}</style></defs><g transform="translate(-34.907 -369.997)"><path class="a" d="M2.185,0,0,2.14,2.185,4.28,4.371,2.14Z" transform="translate(36.5 369.997)"/><path class="a" d="M0,2.14,2.185,4.28,4.371,2.14,2.185,0Z" transform="translate(40.87 369.997)"/><path class="a" d="M0,2.14,2.185,4.28,4.371,2.14,2.185,0Z" transform="translate(45.241 369.997)"/><path class="a" d="M0,2.14,2.185,4.28,4.371,2.14,2.185,0Z" transform="translate(49.612 369.997)"/><path class="a" d="M0,2.14,2.185,4.28,4.371,2.14,2.185,0Z" transform="translate(53.982 369.997)"/><path class="b" d="M-35.462,86.4H-59.5V65h24.038V86.4Zm-15.3-7.492H-44.2v5.351h6.556V67.14H-57.315V84.263h6.556v-5.35Z" transform="translate(94.907 309.277)"/><path class="a" d="M0,0V2.14H2.185V0Z" transform="translate(39.778 378.558)"/><path class="a" d="M0,0V2.14H2.185V0Z" transform="translate(44.148 378.558)"/><path class="a" d="M0,0V2.14H2.185V0Z" transform="translate(39.778 381.768)"/><path class="a" d="M0,0V2.14H2.185V0Z" transform="translate(44.148 381.768)"/><path class="a" d="M0,0V2.14H2.185V0Z" transform="translate(48.519 381.768)"/><path class="a" d="M0,0V2.14H2.185V0Z" transform="translate(52.89 381.768)"/><path class="a" d="M0,0V2.14H2.185V0Z" transform="translate(39.778 384.978)"/><path class="a" d="M0,0V2.14H2.185V0Z" transform="translate(44.148 384.978)"/><path class="a" d="M0,0V2.14H2.185V0Z" transform="translate(48.519 384.978)"/><path class="a" d="M0,0V2.14H2.185V0Z" transform="translate(52.89 384.978)"/><path class="a" d="M0,0V2.14H2.185V0Z" transform="translate(39.778 388.189)"/><path class="a" d="M0,0V2.14H2.185V0Z" transform="translate(52.89 388.189)"/><path class="a" d="M0,0H2.185V3.21H0Z" transform="translate(46.334 390.329)"/></g></svg>