<svg xmlns="http://www.w3.org/2000/svg" width="11.952" height="12.012" viewBox="0 0 11.952 12.012"><defs><style>.a{fill:#80c7b7;}</style></defs><path class="a" d="M0,12.012V4H3.174L5.166,0h.311A1.477,1.477,0,0,1,6.566.5a1.491,1.491,0,0,1,.405,1c0,.045,0,.094,0,.146a2.916,2.916,0,0,1-.111,1.012A5.117,5.117,0,0,0,6.6,3.869c0,.048-.009.092-.014.135h3.875A1.512,1.512,0,0,1,11.92,5.819l-1.074,5a1.507,1.507,0,0,1-1.463,1.189ZM3.983,4.63v6.381h5.4a.5.5,0,0,0,.5-.391l1.057-5a.511.511,0,0,0-.1-.432A.483.483,0,0,0,10.456,5H5.446l.032-.532a9.634,9.634,0,0,1,.436-2.127,2.549,2.549,0,0,0,.062-.739V1.5a.568.568,0,0,0-.139-.329.113.113,0,0,0-.06-.028.122.122,0,0,1-.049-.019ZM1,11.011H2.988V5H1Zm.5-1a.5.5,0,1,1,.5.5A.5.5,0,0,1,1.494,10.01Z"/></svg>