<svg xmlns="http://www.w3.org/2000/svg" width="26.682" height="29.294" viewBox="0 0 26.682 29.294"><defs><style>.a{fill:#80c7b7;stroke:rgba(0,0,0,0);stroke-miterlimit:10;}</style></defs><path class="a" d="M-167.739,62.936h-5.126l1.075-9.631H-173.8l-2.149,3.21H-180.5l1.289-6.421-1.289-6.421h4.552l2.149,3.21h2.007l-1.075-9.631h5.126l4.3,9.631h7.9a3.208,3.208,0,0,1,2.275.945,3.179,3.179,0,0,1,.949,2.265,3.179,3.179,0,0,1-.949,2.265,3.207,3.207,0,0,1-2.275.945h-7.9l-4.3,9.63Zm-7.209-11.771h5.559l-1.075,9.631h1.322l4.3-9.631h9.3a1.049,1.049,0,0,0,1.075-1.07,1.049,1.049,0,0,0-1.075-1.07h-9.3l-4.3-9.631h-1.322l1.075,9.631h-5.559l-2.15-3.21h-.781l.861,4.28-.861,4.28h.781l2.15-3.21Z" transform="translate(-36.754 -151.816) rotate(-90)"/></svg>