<svg xmlns="http://www.w3.org/2000/svg" width="18.29" height="18.265" viewBox="0 0 18.29 18.265"><defs><style>.a{fill:#fff;opacity:0.4;}</style></defs><path class="a" d="M1.524,18.265H0a5.319,5.319,0,0,1,2.882-4.733,3.81,3.81,0,1,1,4.906,0,5.319,5.319,0,0,1,2.882,4.732H9.145A3.816,3.816,0,0,0,2.637,15.57a3.78,3.78,0,0,0-1.112,2.694h0ZM3.714,9.036a2.305,2.305,0,1,0,1.621-.665A2.27,2.27,0,0,0,3.714,9.036Zm8.312,7.706a6.725,6.725,0,0,0-.571-1.522h5.311V5.327H12.956V1.522h-6.1V5.541a5.259,5.259,0,0,0-1.525-.214V0h8.312L18.29,4.637V16.742Z"/></svg>