<svg xmlns="http://www.w3.org/2000/svg" width="21.551" height="27.34" viewBox="0 0 21.551 27.34"><defs><style>.a{fill:#80c7b7;}</style></defs><path class="a" d="M16.265,25.051a6.728,6.728,0,0,1-1.179.1H6.465a6.806,6.806,0,0,1-1.178-.1L3.6,27.34H1.077L3.3,24.3A6.619,6.619,0,0,1,0,18.591V7.655A5.435,5.435,0,0,1,5.387,2.187h.438A3.077,3.077,0,0,1,8.62,0h4.31a3.079,3.079,0,0,1,2.8,2.187h.437a5.434,5.434,0,0,1,5.388,5.468V18.591a6.616,6.616,0,0,1-3.3,5.707l2.222,3.04-2.525,0ZM2.155,18.591a4.38,4.38,0,0,0,1.259,3.1,4.254,4.254,0,0,0,3.051,1.277h8.621a4.254,4.254,0,0,0,3.052-1.277,4.38,4.38,0,0,0,1.258-3.1V16.4H2.155Zm0-4.374H19.4V8.749H2.155Zm.168-7.655h16.9a3.234,3.234,0,0,0-3.064-2.187H14.009V3.281A1.062,1.062,0,0,0,12.93,2.187H8.62A1.062,1.062,0,0,0,7.543,3.281V4.375H5.387A3.237,3.237,0,0,0,2.323,6.562ZM14.009,19.138a1.617,1.617,0,1,1,1.616,1.641A1.629,1.629,0,0,1,14.009,19.138Zm-9.7,0a1.617,1.617,0,1,1,1.616,1.641A1.629,1.629,0,0,1,4.31,19.138Z"/></svg>